<!--
  icon-github.svg
  Purpose: GitHub logo used as a footer social link icon across all pages.
  Usage: <img src="assets/icons/icon-github.svg" alt="GitHub" class="social-icon">
-->
<svg xmlns="http://www.w3.org/2000/svg" viewBox="0 0 24 24" fill="currentColor" width="24" height="24">
  <path d="M12 .5C5.73.5.5 5.73.5 12c0 5.08 3.29 9.39 7.86 10.9.57.1.78-.25.78-.55
  0-.27-.01-1.17-.02-2.12-3.2.7-3.87-1.36-3.87-1.36-.53-1.34-1.29-1.7-1.29-1.7
  -1.05-.72.08-.71.08-.71 1.16.08 1.77 1.19 1.77 1.19 1.03 1.77 2.71 1.26 3.37.96
  .1-.75.4-1.26.73-1.55-2.55-.29-5.23-1.28-5.23-5.7 0-1.26.45-2.29 1.19-3.1
  -.12-.29-.52-1.46.11-3.04 0 0 .97-.31 3.18 1.18.92-.26 1.91-.39 2.89-.39
  .98 0 1.97.13 2.89.39 2.21-1.49 3.18-1.18 3.18-1.18.63 1.58.23 2.75.11 3.04
  .74.81 1.19 1.84 1.19 3.1 0 4.43-2.69 5.41-5.25 5.69.41.36.78 1.07.78 2.16
  0 1.56-.01 2.82-.01 3.2 0 .31.21.66.79.55A11.5 11.5 0 0 0 23.5 12C23.5 5.73 18.27.5 12 .5z"/>
</svg>
