<!--
  icon-linkedin.svg
  Purpose: LinkedIn logo used as a footer social link icon across all pages.
  Usage: <img src="assets/icons/icon-linkedin.svg" alt="LinkedIn" class="social-icon">
-->
<svg xmlns="http://www.w3.org/2000/svg" viewBox="0 0 24 24" fill="currentColor" width="24" height="24">
  <path d="M20.45 20.45h-3.55v-5.57c0-1.33-.02-3.04-1.85-3.04-1.85 0-2.14 1.45-2.14 2.94v5.67H9.36V9h3.41v1.56h.05c.48-.9
  1.64-1.85 3.38-1.85 3.6 0 4.27 2.37 4.27 5.46v6.28zM5.34 7.43a2.06 2.06 0 1 1 0-4.12 2.06 2.06 0 0 1 0 4.12zM7.12
  20.45H3.56V9h3.56v11.45zM22.22 0H1.77C.8 0 0 .78 0 1.74v20.52C0 23.22.8 24 1.77 24h20.45c.98 0 1.78-.78
  1.78-1.74V1.74C24 .78 23.2 0 22.22 0z"/>
</svg>
